<mxfile host="Electron" agent="Mozilla/5.0 (Windows NT 10.0; Win64; x64) AppleWebKit/537.36 (KHTML, like Gecko) draw.io/24.7.17 Chrome/128.0.6613.36 Electron/32.0.1 Safari/537.36" version="24.7.17">
  <diagram name="Страница — 1" id="91qsX4MHAb3QmisUhjOq">
    <mxGraphModel dx="941" dy="562" grid="1" gridSize="10" guides="1" tooltips="1" connect="1" arrows="1" fold="1" page="1" pageScale="1" pageWidth="827" pageHeight="1169" math="0" shadow="0">
      <root>
        <mxCell id="0" />
        <mxCell id="1" parent="0" />
        <mxCell id="UMLPITBQyh78Tt4QlIgX-1" value="Начало" style="ellipse;whiteSpace=wrap;html=1;" vertex="1" parent="1">
          <mxGeometry x="270" y="40" width="120" height="40" as="geometry" />
        </mxCell>
        <mxCell id="UMLPITBQyh78Tt4QlIgX-2" value="int main()" style="shape=process;whiteSpace=wrap;html=1;backgroundOutline=1;" vertex="1" parent="1">
          <mxGeometry x="270" y="110" width="120" height="40" as="geometry" />
        </mxCell>
        <mxCell id="UMLPITBQyh78Tt4QlIgX-3" value="" style="endArrow=classic;html=1;rounded=0;exitX=0.5;exitY=1;exitDx=0;exitDy=0;entryX=0.5;entryY=0;entryDx=0;entryDy=0;" edge="1" parent="1" source="UMLPITBQyh78Tt4QlIgX-1" target="UMLPITBQyh78Tt4QlIgX-2">
          <mxGeometry width="50" height="50" relative="1" as="geometry">
            <mxPoint x="350" y="240" as="sourcePoint" />
            <mxPoint x="400" y="190" as="targetPoint" />
          </mxGeometry>
        </mxCell>
        <mxCell id="UMLPITBQyh78Tt4QlIgX-4" value="" style="endArrow=none;dashed=1;html=1;dashPattern=1 3;strokeWidth=2;rounded=0;" edge="1" parent="1">
          <mxGeometry width="50" height="50" relative="1" as="geometry">
            <mxPoint x="330" y="90" as="sourcePoint" />
            <mxPoint x="460" y="90" as="targetPoint" />
          </mxGeometry>
        </mxCell>
        <mxCell id="UMLPITBQyh78Tt4QlIgX-5" value="#include &amp;lt;iostream&amp;gt;&lt;div&gt;#include &amp;lt;сlocale&amp;gt;&lt;br&gt;&lt;/div&gt;&lt;div&gt;#include &amp;lt;math.h&amp;gt;&lt;/div&gt;&lt;div&gt;using namespace std;&lt;/div&gt;" style="strokeWidth=2;html=1;shape=mxgraph.flowchart.annotation_1;align=left;pointerEvents=1;" vertex="1" parent="1">
          <mxGeometry x="460" y="50" width="50" height="60" as="geometry" />
        </mxCell>
        <mxCell id="UMLPITBQyh78Tt4QlIgX-6" value="" style="endArrow=classic;html=1;rounded=0;exitX=0.5;exitY=1;exitDx=0;exitDy=0;entryX=0.5;entryY=0;entryDx=0;entryDy=0;" edge="1" parent="1" source="UMLPITBQyh78Tt4QlIgX-2" target="UMLPITBQyh78Tt4QlIgX-10">
          <mxGeometry width="50" height="50" relative="1" as="geometry">
            <mxPoint x="350" y="240" as="sourcePoint" />
            <mxPoint x="330" y="200" as="targetPoint" />
            <Array as="points" />
          </mxGeometry>
        </mxCell>
        <mxCell id="UMLPITBQyh78Tt4QlIgX-7" value="{" style="edgeLabel;html=1;align=center;verticalAlign=middle;resizable=0;points=[];" vertex="1" connectable="0" parent="UMLPITBQyh78Tt4QlIgX-6">
          <mxGeometry x="-0.344" y="-1" relative="1" as="geometry">
            <mxPoint x="-5" y="14" as="offset" />
          </mxGeometry>
        </mxCell>
        <mxCell id="UMLPITBQyh78Tt4QlIgX-8" style="edgeStyle=orthogonalEdgeStyle;rounded=0;orthogonalLoop=1;jettySize=auto;html=1;exitX=0.5;exitY=0;exitDx=0;exitDy=0;" edge="1" parent="1" source="UMLPITBQyh78Tt4QlIgX-10">
          <mxGeometry relative="1" as="geometry">
            <mxPoint x="330" y="200" as="targetPoint" />
          </mxGeometry>
        </mxCell>
        <mxCell id="UMLPITBQyh78Tt4QlIgX-9" style="edgeStyle=orthogonalEdgeStyle;rounded=0;orthogonalLoop=1;jettySize=auto;html=1;exitX=0.5;exitY=1;exitDx=0;exitDy=0;" edge="1" parent="1" source="UMLPITBQyh78Tt4QlIgX-10" target="UMLPITBQyh78Tt4QlIgX-12">
          <mxGeometry relative="1" as="geometry" />
        </mxCell>
        <mxCell id="UMLPITBQyh78Tt4QlIgX-10" value="setlocale(LC_ALL,&quot;russian&quot;);" style="rounded=0;whiteSpace=wrap;html=1;" vertex="1" parent="1">
          <mxGeometry x="250" y="200" width="160" height="20" as="geometry" />
        </mxCell>
        <mxCell id="UMLPITBQyh78Tt4QlIgX-11" style="edgeStyle=orthogonalEdgeStyle;rounded=0;orthogonalLoop=1;jettySize=auto;html=1;exitX=0.5;exitY=1;exitDx=0;exitDy=0;" edge="1" parent="1" source="UMLPITBQyh78Tt4QlIgX-12">
          <mxGeometry relative="1" as="geometry">
            <mxPoint x="330" y="280" as="targetPoint" />
          </mxGeometry>
        </mxCell>
        <mxCell id="UMLPITBQyh78Tt4QlIgX-12" value="float a, b, k, x0;" style="rounded=0;whiteSpace=wrap;html=1;" vertex="1" parent="1">
          <mxGeometry x="270" y="240" width="120" height="20" as="geometry" />
        </mxCell>
        <mxCell id="UMLPITBQyh78Tt4QlIgX-13" style="edgeStyle=orthogonalEdgeStyle;rounded=0;orthogonalLoop=1;jettySize=auto;html=1;exitX=0.5;exitY=1;exitDx=0;exitDy=0;" edge="1" parent="1" source="UMLPITBQyh78Tt4QlIgX-14">
          <mxGeometry relative="1" as="geometry">
            <mxPoint x="330" y="320" as="targetPoint" />
          </mxGeometry>
        </mxCell>
        <mxCell id="UMLPITBQyh78Tt4QlIgX-14" value="float t = 0.001;" style="rounded=0;whiteSpace=wrap;html=1;" vertex="1" parent="1">
          <mxGeometry x="270" y="280" width="120" height="20" as="geometry" />
        </mxCell>
        <mxCell id="UMLPITBQyh78Tt4QlIgX-15" style="edgeStyle=orthogonalEdgeStyle;rounded=0;orthogonalLoop=1;jettySize=auto;html=1;exitX=0.5;exitY=1;exitDx=0;exitDy=0;" edge="1" parent="1" source="UMLPITBQyh78Tt4QlIgX-16">
          <mxGeometry relative="1" as="geometry">
            <mxPoint x="330" y="450" as="targetPoint" />
          </mxGeometry>
        </mxCell>
        <mxCell id="UMLPITBQyh78Tt4QlIgX-16" value="cout &amp;lt;&amp;lt; &quot;Введите нижнюю и верхнюю границы отрезка&quot; &amp;lt;&amp;lt; endl;" style="shape=parallelogram;perimeter=parallelogramPerimeter;whiteSpace=wrap;html=1;fixedSize=1;" vertex="1" parent="1">
          <mxGeometry x="205" y="380" width="250" height="40" as="geometry" />
        </mxCell>
        <mxCell id="UMLPITBQyh78Tt4QlIgX-17" style="edgeStyle=orthogonalEdgeStyle;rounded=0;orthogonalLoop=1;jettySize=auto;html=1;exitX=0.5;exitY=1;exitDx=0;exitDy=0;entryX=0.5;entryY=0;entryDx=0;entryDy=0;" edge="1" parent="1" source="UMLPITBQyh78Tt4QlIgX-18" target="UMLPITBQyh78Tt4QlIgX-16">
          <mxGeometry relative="1" as="geometry" />
        </mxCell>
        <mxCell id="UMLPITBQyh78Tt4QlIgX-18" value="cout &amp;lt;&amp;lt; &quot;arccos x - &lt;span style=&quot;background: linear-gradient(90deg, rgb(211, 227, 253) 50%, rgba(0, 0, 0, 0) 50%) 0% 0px / 200% 100% no-repeat rgb(255, 255, 255); color: rgb(4, 12, 40); animation: 0.75s cubic-bezier(0.05, 0.7, 0.1, 1) 0.25s 1 normal forwards running highlight; font-family: &amp;quot;Google Sans&amp;quot;, Arial, sans-serif; font-size: 20px; text-align: left;&quot;&gt;√1-0.3x&lt;/span&gt;&lt;span style=&quot;background: linear-gradient(90deg, rgb(211, 227, 253) 50%, rgba(0, 0, 0, 0) 50%) 0% 0px / 200% 100% no-repeat rgb(255, 255, 255); color: rgb(4, 12, 40); animation: 0.75s cubic-bezier(0.05, 0.7, 0.1, 1) 0.25s 1 normal forwards running highlight; font-family: &amp;quot;Google Sans&amp;quot;, Arial, sans-serif; text-align: left; font-size: 16.6667px;&quot;&gt;&lt;sup&gt;3&amp;nbsp;&lt;/sup&gt;=0&quot;&lt;/span&gt;&amp;nbsp;&amp;lt;&amp;lt; endl;" style="shape=parallelogram;perimeter=parallelogramPerimeter;whiteSpace=wrap;html=1;fixedSize=1;" vertex="1" parent="1">
          <mxGeometry x="190" y="320" width="300" height="30" as="geometry" />
        </mxCell>
        <mxCell id="UMLPITBQyh78Tt4QlIgX-24" style="edgeStyle=orthogonalEdgeStyle;rounded=0;orthogonalLoop=1;jettySize=auto;html=1;" edge="1" parent="1" source="UMLPITBQyh78Tt4QlIgX-19">
          <mxGeometry relative="1" as="geometry">
            <mxPoint x="325" y="540" as="targetPoint" />
          </mxGeometry>
        </mxCell>
        <mxCell id="UMLPITBQyh78Tt4QlIgX-19" value="cin &amp;gt;&amp;gt; a &amp;gt;&amp;gt; b;" style="shape=parallelogram;perimeter=parallelogramPerimeter;whiteSpace=wrap;html=1;fixedSize=1;" vertex="1" parent="1">
          <mxGeometry x="200" y="450" width="250" height="30" as="geometry" />
        </mxCell>
        <mxCell id="UMLPITBQyh78Tt4QlIgX-20" value="" style="endArrow=classic;html=1;rounded=0;" edge="1" parent="1">
          <mxGeometry width="50" height="50" relative="1" as="geometry">
            <mxPoint x="430" y="380" as="sourcePoint" />
            <mxPoint x="480" y="330" as="targetPoint" />
          </mxGeometry>
        </mxCell>
        <mxCell id="UMLPITBQyh78Tt4QlIgX-26" style="edgeStyle=orthogonalEdgeStyle;rounded=0;orthogonalLoop=1;jettySize=auto;html=1;" edge="1" parent="1" source="UMLPITBQyh78Tt4QlIgX-25" target="UMLPITBQyh78Tt4QlIgX-27">
          <mxGeometry relative="1" as="geometry">
            <mxPoint x="325" y="610" as="targetPoint" />
          </mxGeometry>
        </mxCell>
        <mxCell id="UMLPITBQyh78Tt4QlIgX-25" value="x0 = (a + b) / 2;" style="rounded=0;whiteSpace=wrap;html=1;" vertex="1" parent="1">
          <mxGeometry x="265" y="540" width="120" height="40" as="geometry" />
        </mxCell>
        <mxCell id="UMLPITBQyh78Tt4QlIgX-28" style="edgeStyle=orthogonalEdgeStyle;rounded=0;orthogonalLoop=1;jettySize=auto;html=1;" edge="1" parent="1" source="UMLPITBQyh78Tt4QlIgX-27" target="UMLPITBQyh78Tt4QlIgX-29">
          <mxGeometry relative="1" as="geometry">
            <mxPoint x="325" y="720" as="targetPoint" />
          </mxGeometry>
        </mxCell>
        <mxCell id="UMLPITBQyh78Tt4QlIgX-27" value="&lt;p class=&quot;MsoNormal&quot;&gt;&lt;span style=&quot;line-height: 107%;&quot; lang=&quot;EN-US&quot;&gt;&lt;font style=&quot;font-size: 12px;&quot;&gt;k = (acos(a) -&lt;br&gt;pow(1 - 0.3 * pow(a, 3), 0.5)) * (acos(x0) - pow(1 - 0.3 * pow(x0, 3), 0.5));&lt;/font&gt;&lt;/span&gt;&lt;/p&gt;" style="rounded=0;whiteSpace=wrap;html=1;" vertex="1" parent="1">
          <mxGeometry x="200" y="610" width="250" height="60" as="geometry" />
        </mxCell>
        <mxCell id="UMLPITBQyh78Tt4QlIgX-30" style="edgeStyle=orthogonalEdgeStyle;rounded=0;orthogonalLoop=1;jettySize=auto;html=1;" edge="1" parent="1" source="UMLPITBQyh78Tt4QlIgX-29">
          <mxGeometry relative="1" as="geometry">
            <mxPoint x="190" y="790" as="targetPoint" />
            <Array as="points">
              <mxPoint x="190" y="750" />
              <mxPoint x="190" y="751" />
            </Array>
          </mxGeometry>
        </mxCell>
        <mxCell id="UMLPITBQyh78Tt4QlIgX-37" style="edgeStyle=orthogonalEdgeStyle;rounded=0;orthogonalLoop=1;jettySize=auto;html=1;" edge="1" parent="1" source="UMLPITBQyh78Tt4QlIgX-29">
          <mxGeometry relative="1" as="geometry">
            <mxPoint x="460" y="790" as="targetPoint" />
            <Array as="points">
              <mxPoint x="458" y="750" />
              <mxPoint x="458" y="751" />
            </Array>
          </mxGeometry>
        </mxCell>
        <mxCell id="UMLPITBQyh78Tt4QlIgX-29" value="if (k == 0)" style="rhombus;whiteSpace=wrap;html=1;" vertex="1" parent="1">
          <mxGeometry x="285" y="710" width="80" height="80" as="geometry" />
        </mxCell>
        <mxCell id="UMLPITBQyh78Tt4QlIgX-33" style="edgeStyle=orthogonalEdgeStyle;rounded=0;orthogonalLoop=1;jettySize=auto;html=1;" edge="1" parent="1" source="UMLPITBQyh78Tt4QlIgX-31">
          <mxGeometry relative="1" as="geometry">
            <mxPoint x="190" y="850" as="targetPoint" />
          </mxGeometry>
        </mxCell>
        <mxCell id="UMLPITBQyh78Tt4QlIgX-31" value="a = x0;" style="rounded=0;whiteSpace=wrap;html=1;" vertex="1" parent="1">
          <mxGeometry x="130" y="790" width="120" height="30" as="geometry" />
        </mxCell>
        <mxCell id="UMLPITBQyh78Tt4QlIgX-34" value="b = x0;" style="rounded=0;whiteSpace=wrap;html=1;" vertex="1" parent="1">
          <mxGeometry x="130" y="850" width="120" height="30" as="geometry" />
        </mxCell>
        <mxCell id="UMLPITBQyh78Tt4QlIgX-35" value="1" style="edgeLabel;html=1;align=center;verticalAlign=middle;resizable=0;points=[];" vertex="1" connectable="0" parent="1">
          <mxGeometry x="200" y="580" as="geometry">
            <mxPoint x="217" y="161" as="offset" />
          </mxGeometry>
        </mxCell>
        <mxCell id="UMLPITBQyh78Tt4QlIgX-36" value="0" style="edgeLabel;html=1;align=center;verticalAlign=middle;resizable=0;points=[];" vertex="1" connectable="0" parent="1">
          <mxGeometry x="160" y="580" as="geometry">
            <mxPoint x="217" y="161" as="offset" />
          </mxGeometry>
        </mxCell>
        <mxCell id="UMLPITBQyh78Tt4QlIgX-38" value="{" style="edgeLabel;html=1;align=center;verticalAlign=middle;resizable=0;points=[];" vertex="1" connectable="0" parent="1">
          <mxGeometry x="400" y="390" as="geometry">
            <mxPoint x="-224" y="368" as="offset" />
          </mxGeometry>
        </mxCell>
        <mxCell id="UMLPITBQyh78Tt4QlIgX-39" value="{" style="edgeLabel;html=1;align=center;verticalAlign=middle;resizable=0;points=[];" vertex="1" connectable="0" parent="1">
          <mxGeometry x="230" y="520" as="geometry">
            <mxPoint x="219" y="246" as="offset" />
          </mxGeometry>
        </mxCell>
        <mxCell id="UMLPITBQyh78Tt4QlIgX-41" style="edgeStyle=orthogonalEdgeStyle;rounded=0;orthogonalLoop=1;jettySize=auto;html=1;" edge="1" parent="1" source="UMLPITBQyh78Tt4QlIgX-40">
          <mxGeometry relative="1" as="geometry">
            <mxPoint x="380" y="840" as="targetPoint" />
            <Array as="points">
              <mxPoint x="380" y="815" />
              <mxPoint x="380" y="816" />
            </Array>
          </mxGeometry>
        </mxCell>
        <mxCell id="UMLPITBQyh78Tt4QlIgX-43" style="edgeStyle=orthogonalEdgeStyle;rounded=0;orthogonalLoop=1;jettySize=auto;html=1;" edge="1" parent="1" source="UMLPITBQyh78Tt4QlIgX-40">
          <mxGeometry relative="1" as="geometry">
            <mxPoint x="550" y="840" as="targetPoint" />
            <Array as="points">
              <mxPoint x="550" y="815" />
              <mxPoint x="550" y="816" />
            </Array>
          </mxGeometry>
        </mxCell>
        <mxCell id="UMLPITBQyh78Tt4QlIgX-40" value="if (k &amp;lt; 0)" style="rhombus;whiteSpace=wrap;html=1;" vertex="1" parent="1">
          <mxGeometry x="420" y="790" width="80" height="50" as="geometry" />
        </mxCell>
        <mxCell id="UMLPITBQyh78Tt4QlIgX-42" value="b = x0;" style="rounded=0;whiteSpace=wrap;html=1;" vertex="1" parent="1">
          <mxGeometry x="320" y="840" width="120" height="30" as="geometry" />
        </mxCell>
        <mxCell id="UMLPITBQyh78Tt4QlIgX-44" value="a = x0;" style="rounded=0;whiteSpace=wrap;html=1;" vertex="1" parent="1">
          <mxGeometry x="490" y="840" width="120" height="30" as="geometry" />
        </mxCell>
        <mxCell id="UMLPITBQyh78Tt4QlIgX-45" value="1" style="edgeLabel;html=1;align=center;verticalAlign=middle;resizable=0;points=[];" vertex="1" connectable="0" parent="1">
          <mxGeometry x="190" y="640" as="geometry">
            <mxPoint x="217" y="161" as="offset" />
          </mxGeometry>
        </mxCell>
        <mxCell id="UMLPITBQyh78Tt4QlIgX-46" value="0" style="edgeLabel;html=1;align=center;verticalAlign=middle;resizable=0;points=[];" vertex="1" connectable="0" parent="1">
          <mxGeometry x="290" y="640" as="geometry">
            <mxPoint x="217" y="161" as="offset" />
          </mxGeometry>
        </mxCell>
        <mxCell id="UMLPITBQyh78Tt4QlIgX-47" value="" style="endArrow=none;html=1;rounded=0;" edge="1" parent="1">
          <mxGeometry width="50" height="50" relative="1" as="geometry">
            <mxPoint x="330" y="920" as="sourcePoint" />
            <mxPoint x="190" y="880" as="targetPoint" />
            <Array as="points">
              <mxPoint x="190" y="920" />
            </Array>
          </mxGeometry>
        </mxCell>
        <mxCell id="UMLPITBQyh78Tt4QlIgX-48" value="" style="endArrow=none;html=1;rounded=0;" edge="1" parent="1">
          <mxGeometry width="50" height="50" relative="1" as="geometry">
            <mxPoint x="380" y="870" as="sourcePoint" />
            <mxPoint x="460" y="890" as="targetPoint" />
            <Array as="points">
              <mxPoint x="380" y="890" />
            </Array>
          </mxGeometry>
        </mxCell>
        <mxCell id="UMLPITBQyh78Tt4QlIgX-49" value="" style="endArrow=none;html=1;rounded=0;" edge="1" parent="1">
          <mxGeometry width="50" height="50" relative="1" as="geometry">
            <mxPoint x="460" y="890" as="sourcePoint" />
            <mxPoint x="550" y="870" as="targetPoint" />
            <Array as="points">
              <mxPoint x="550" y="890" />
            </Array>
          </mxGeometry>
        </mxCell>
        <mxCell id="UMLPITBQyh78Tt4QlIgX-50" value="" style="endArrow=none;html=1;rounded=0;" edge="1" parent="1">
          <mxGeometry width="50" height="50" relative="1" as="geometry">
            <mxPoint x="330" y="920" as="sourcePoint" />
            <mxPoint x="470" y="890" as="targetPoint" />
            <Array as="points">
              <mxPoint x="470" y="920" />
            </Array>
          </mxGeometry>
        </mxCell>
        <mxCell id="UMLPITBQyh78Tt4QlIgX-51" value="" style="endArrow=classic;html=1;rounded=0;" edge="1" parent="1">
          <mxGeometry width="50" height="50" relative="1" as="geometry">
            <mxPoint x="324.5" y="920" as="sourcePoint" />
            <mxPoint x="324.5" y="970" as="targetPoint" />
          </mxGeometry>
        </mxCell>
        <mxCell id="UMLPITBQyh78Tt4QlIgX-52" value="while (abs(a - b) &amp;gt; t)" style="rhombus;whiteSpace=wrap;html=1;" vertex="1" parent="1">
          <mxGeometry x="250" y="970" width="150" height="80" as="geometry" />
        </mxCell>
        <mxCell id="UMLPITBQyh78Tt4QlIgX-53" value="1" style="edgeLabel;html=1;align=center;verticalAlign=middle;resizable=0;points=[];" vertex="1" connectable="0" parent="1">
          <mxGeometry x="10" y="840" as="geometry">
            <mxPoint x="217" y="161" as="offset" />
          </mxGeometry>
        </mxCell>
        <mxCell id="UMLPITBQyh78Tt4QlIgX-54" value="0" style="edgeLabel;html=1;align=center;verticalAlign=middle;resizable=0;points=[];" vertex="1" connectable="0" parent="1">
          <mxGeometry x="205" y="840" as="geometry">
            <mxPoint x="217" y="161" as="offset" />
          </mxGeometry>
        </mxCell>
        <mxCell id="UMLPITBQyh78Tt4QlIgX-55" value="" style="endArrow=none;html=1;rounded=0;" edge="1" parent="1">
          <mxGeometry width="50" height="50" relative="1" as="geometry">
            <mxPoint x="40" y="690" as="sourcePoint" />
            <mxPoint x="250" y="1010" as="targetPoint" />
            <Array as="points">
              <mxPoint x="40" y="1010" />
            </Array>
          </mxGeometry>
        </mxCell>
        <mxCell id="UMLPITBQyh78Tt4QlIgX-56" value="" style="endArrow=classic;html=1;rounded=0;" edge="1" parent="1">
          <mxGeometry width="50" height="50" relative="1" as="geometry">
            <mxPoint x="40" y="690" as="sourcePoint" />
            <mxPoint x="330" y="690" as="targetPoint" />
          </mxGeometry>
        </mxCell>
        <mxCell id="UMLPITBQyh78Tt4QlIgX-57" value="" style="endArrow=classic;html=1;rounded=0;" edge="1" parent="1">
          <mxGeometry width="50" height="50" relative="1" as="geometry">
            <mxPoint x="589.5" y="1090" as="sourcePoint" />
            <mxPoint x="590" y="1120" as="targetPoint" />
          </mxGeometry>
        </mxCell>
        <mxCell id="UMLPITBQyh78Tt4QlIgX-58" value="return 0;" style="ellipse;whiteSpace=wrap;html=1;" vertex="1" parent="1">
          <mxGeometry x="530" y="1120" width="120" height="40" as="geometry" />
        </mxCell>
        <mxCell id="UMLPITBQyh78Tt4QlIgX-59" value="}" style="text;html=1;align=center;verticalAlign=middle;resizable=0;points=[];autosize=1;strokeColor=none;fillColor=none;" vertex="1" parent="1">
          <mxGeometry x="650" y="1125" width="30" height="30" as="geometry" />
        </mxCell>
        <mxCell id="UMLPITBQyh78Tt4QlIgX-60" value="" style="endArrow=classic;html=1;rounded=0;exitX=1;exitY=0.5;exitDx=0;exitDy=0;" edge="1" parent="1">
          <mxGeometry width="50" height="50" relative="1" as="geometry">
            <mxPoint x="400" y="1010" as="sourcePoint" />
            <mxPoint x="590" y="1040" as="targetPoint" />
            <Array as="points">
              <mxPoint x="590" y="1010" />
            </Array>
          </mxGeometry>
        </mxCell>
        <mxCell id="UMLPITBQyh78Tt4QlIgX-61" value="cout &amp;lt;&amp;lt; &quot;Корень уравнения: &quot; &amp;lt;&amp;lt; x1;" style="shape=parallelogram;perimeter=parallelogramPerimeter;whiteSpace=wrap;html=1;fixedSize=1;" vertex="1" parent="1">
          <mxGeometry x="510" y="1040" width="150" height="60" as="geometry" />
        </mxCell>
      </root>
    </mxGraphModel>
  </diagram>
</mxfile>
